PathFileType	4	(X/Y/Z)	path1_14_0-593.trc
DataRate	CameraRate	NumFrames	NumMarkers	Units	OrigDataRate	OrigDataStartFrame	OrigNumFrames
30	30	7	22	m	30	148	593
Frame#	Time	Hip			RHip			RKnee			RAnkle			RBigToe			RSmallToe			RHeel			LHip			LKnee			LAnkle			LBigToe			LSmallToe			LHeel			Neck			Head			Nose			RShoulder			RElbow			RWrist			LShoulder			LElbow			LWrist		
		X1	Y1	Z1	X2	Y2	Z2	X3	Y3	Z3	X4	Y4	Z4	X5	Y5	Z5	X6	Y6	Z6	X7	Y7	Z7	X8	Y8	Z8	X9	Y9	Z9	X10	Y10	Z10	X11	Y11	Z11	X12	Y12	Z12	X13	Y13	Z13	X14	Y14	Z14	X15	Y15	Z15	X16	Y16	Z16	X17	Y17	Z17	X18	Y18	Z18	X19	Y19	Z19	X20	Y20	Z20	X21	Y21	Z21	X22	Y22	Z22
149	4.966666666666667	2.497836751729196	0.839908063296611	0.5750393216909464	2.500210540447989	0.8014499688136982	0.4956361519642419	2.478713052904138	0.46401779131518334	0.5002914254217101	2.542504240549579	0.102069623849451	0.5422760235934068	2.3497723295927138	0.028005059521564846	0.522600874239452	2.385099011607682	0.022478008192932494	0.46149540692804936	2.5892679306040347	0.03867219094803626	0.5422084244392423	2.4969103429430755	0.7985712772712551	0.6527978668211709	2.5060951971547323	0.43549228505367665	0.6358865003373505	2.5412611355799535	0.09231790320066198	0.6427936823482229	2.366285293776876	0.01972569082373937	0.6564888999787182	2.3993349917832405	0.02264192300590483	0.7116577754372899	2.577777052031354	0.039217331192262735	0.6481106999615598	2.470194928063296	1.4732529375786108	0.601215265746613	2.4355044465586326	1.7150262870458555	0.5501802917982916	2.335026290613102	1.6037764461391268	0.5769474062302095	2.517742173913416	1.3719353684663083	0.4230229296372353	2.5527981238505415	1.0736487334341827	0.4145930207578383	2.52490213139495	0.8518185669575162	0.3796685929167749	2.504466861363428	1.354555399763326	0.736697616920518	2.5330916109398536	1.074933161673826	0.7830115543251618	2.5356331330302693	0.8407037286335268	0.7824243683128288
150	5.0	2.4978105397062693	0.8400374648328955	0.5749093937550553	2.5001586981781196	0.801963184099251	0.4959051827101227	2.4784624308274745	0.4640983581023591	0.5005616854252892	2.5426673517693357	0.10178555230167172	0.5424173967143842	2.349970947305253	0.028036006767354394	0.522667623528972	2.3851152539051137	0.02232690420393496	0.4613781485130132	2.589754357988508	0.03824753475302807	0.5414724689403753	2.496823654639284	0.7989491356320635	0.6532490776026	2.505733847447977	0.43577271395340617	0.6362871619008038	2.5410875802780075	0.09289295656161167	0.6428823050224817	2.3661189223880883	0.02052966317767522	0.6573257315887359	2.3998544182438324	0.02231291261794985	0.7116652479018187	2.5786936438444408	0.03846506231758874	0.6485909772979944	2.4702327656393788	1.4730576633557626	0.6014279791176568	2.435166267078981	1.7154370313879497	0.5502334255252594	2.3351463172906484	1.603551793415513	0.5773312455031003	2.517513571986393	1.3716970610131416	0.42318074168545916	2.5527556481067695	1.0738525267029484	0.41500825586644924	2.5249725125139975	0.8521879559864407	0.38018395991338216	2.5019813130607087	1.354023889216133	0.7406617085926673	2.5333141897118425	1.0748057239590667	0.7830002344617921	2.535673083570953	0.8405857131094188	0.7822395880360599
151	5.033333333333333	2.497999889753684	0.8401122073697573	0.5749339568125141	2.5006137185932027	0.8027652069673819	0.4963206313779643	2.4784054422539668	0.46431360194668037	0.5007310648215447	2.543292825740518	0.10128860944104953	0.5426722395659407	2.3502933301446642	0.028272375294164133	0.5227416090805113	2.385154648440344	0.02211668590179345	0.4611951665981282	2.590410590549535	0.0376646274797983	0.5403317665975481	2.496694167945781	0.7997836864880842	0.6542538714008677	2.5052195496958536	0.4363864110075443	0.6371426914957825	2.540525498014973	0.09425000879480923	0.6431922582865947	2.366060574109081	0.020943893158867053	0.6578441653959979	2.399958085925137	0.020974721654821726	0.7106193039880284	2.5799251483494343	0.03766054246322706	0.6493050992715018	2.470398568441408	1.4728282309015892	0.6015176309460808	2.434561121281015	1.7159729719360994	0.5506305542751864	2.3353612255585703	1.6031295375150976	0.5778824110201929	2.517293780216782	1.3714671160977303	0.42331704789789015	2.552627076048211	1.0742073411971844	0.4152334385814702	2.5251359687939297	0.8525932856234081	0.38076139235094786	2.499279663744448	1.353507557994855	0.7450441215284516	2.5337061071641216	1.074602853050773	0.7828653248492302	2.535810228351268	0.8405019570116581	0.7820291672990932
152	5.066666666666666	2.498348954370687	0.8401552108358354	0.5751301823773514	2.501443045639081	0.8036873416796715	0.4968178623623327	2.4785229563956275	0.4646393017967366	0.5008168602143256	2.5442306866588345	0.10074938987154566	0.5429324906043886	2.350690756192612	0.028628752254596813	0.5228019328713689	2.385266232366056	0.021874651002782394	0.46103905171312276	2.591069645885709	0.03708815934179597	0.5388713369559405	2.4965014649012223	0.8008581069857222	0.6555981562258315	2.504680280409868	0.4371851453578083	0.6382680004158018	2.5400680205432997	0.09553668405892125	0.6434487075801785	2.366133221606237	0.021054764006448796	0.6580935537691148	2.399772201803857	0.0187754980469384	0.708772812726113	2.58128801326062	0.03694905419979292	0.650055996161658	2.4706327100515493	1.4726309217609663	0.6015996014942177	2.433780113534322	1.716501147454969	0.5512270215337602	2.3355919075205422	1.602602715142587	0.578594196508652	2.5170736284209223	1.3713202516755854	0.42346457152700695	2.5525273241250668	1.074658652514996	0.4153565384346492	2.525353473069224	0.8529107676205527	0.3812288073016864	2.4969945035513295	1.353131333760039	0.7487568317728809	2.534137165826071	1.074380316795812	0.7827449145591582	2.535936690443666	0.8404594033941453	0.7818688943540386
153	5.1	2.4987603522183184	0.8402398139223308	0.5754569548716192	2.502387754844743	0.8045351726170308	0.49734100875907433	2.4787156517735265	0.4650332791669354	0.5008671805128484	2.545143575452363	0.100422040885698	0.5430437196099613	2.3510646106404374	0.029028231663433733	0.5228293868165205	2.3855139758435593	0.02162922411379324	0.4609798097835097	2.5914442550972883	0.036710170938455716	0.5370218650833577	2.4962688940249356	0.8019065687382947	0.6569259650329902	2.5042177794404483	0.43802168257858115	0.6393456669055304	2.5401465018806433	0.09602252991482652	0.6434065971445386	2.36635089305537	0.020978342894954385	0.658177510946877	2.3994814596182534	0.01623157834465065	0.7066689078874415	2.5823834832788926	0.036560305849515216	0.6505100040046937	2.47082376030643	1.4725178178211213	0.6017687552766522	2.432980041102444	1.7169370837586722	0.5517542358697967	2.3357515971259053	1.6020817208282738	0.5793701629910878	2.516858424043246	1.3713033136058692	0.4237214532223363	2.552451920090298	1.0751365931327588	0.41541799825531617	2.525573237592899	0.8530506577418464	0.3814842199862478	2.495391880351646	1.3529449937070637	0.751296335780313	2.5344151364366674	1.0742316701030354	0.7828063817773638	2.5359186925813706	0.8405237151817767	0.7817933005922365
154	5.133333333333334	2.4991092196975018	0.8404041337527384	0.5758546826604333	2.5031582783197392	0.8051687568133682	0.4978138517016826	2.478878990114019	0.4654308576899244	0.5009158296453893	2.5457068523343995	0.10047089789188098	0.5428967655575443	2.351329848878863	0.0294507237856473	0.5227803961627154	2.3859660218394874	0.02140338887379034	0.46105072626810023	2.591300945599894	0.03663532698282312	0.5346183130796182	2.4960394184579653	0.802717331826923	0.6579271134878549	2.503865252773053	0.4388167534833395	0.6400983047498252	2.54092310688765	0.0954383076364145	0.6429768585045741	2.366691937606685	0.020795491011594922	0.6581921093862517	2.3992560403014047	0.01404284698876423	0.7049206215982787	2.5830694438818087	0.036577523432677346	0.6505418664546913	2.470874877401724	1.4724992964086987	0.6020239221699958	2.4323251220286264	1.717277299979	0.5520818224525893	2.3357846637811344	1.6016597385445688	0.5800976888347795	2.5166731865061758	1.3714131570597397	0.42419515892345994	2.552272951778507	1.0755692664435998	0.4153785401837879	2.5257601198698425	0.8529956717001419	0.3815110682657321	2.494426051052525	1.35292680610007	0.752741051547831	2.5344049703786182	1.074231370334121	0.7831559896061215	2.5356732116719543	0.8407630629668802	0.7817836498566831
155	5.166666666666667	2.499274169459138	0.8406319150749755	0.5763038306294195	2.503555940569112	0.8055095438939671	0.49817722502616213	2.478971751508481	0.46578116629651817	0.5009966406053278	2.5457670108091257	0.10085084239281913	0.5425389697489014	2.3514542660063267	0.029913449264257014	0.5226052706947573	2.386646106423969	0.021226029994476772	0.4612535675058788	2.5907022519141805	0.03686287413307382	0.5320771884186885	2.495840057997881	0.8031667035853941	0.6584877028083687	2.503630356727112	0.4395488727586145	0.640414809516357	2.542240102787886	0.09401671660249782	0.6422507808863636	2.367168291553934	0.020512069824404646	0.6581800510576865	2.3991769848949924	0.01272636288860257	0.7038987433708814	2.5836703781459414	0.03687350434197468	0.6504329423945514	2.470774091183432	1.4725499854812956	0.6023139657547154	2.4319304695778556	1.7175200285607235	0.5522578403241148	2.335678200853419	1.6013908788131916	0.5806777225088644	2.5165640780192478	1.3716007432534791	0.42495505668640726	2.5517797190699145	1.0759486650802237	0.41500633410706983	2.5259162631477565	0.8528277470957472	0.38134736747344133	2.493904196221948	1.3530203086674366	0.7534223370061498	2.5340975061819324	1.0743893462426573	0.7838226057541205	2.5351920402581296	0.841182790636672	0.781817017588641
